<svg width="890" height="890" viewBox="0 0 890 890" fill="none" xmlns="http://www.w3.org/2000/svg">
<mask id="mask0_457_48" style="mask-type:alpha" maskUnits="userSpaceOnUse" x="0" y="0" width="889" height="889">
<path fill-rule="evenodd" clip-rule="evenodd" d="M444.472 0C198.992 0 0 198.992 0 444.472C0 689.953 198.992 888.945 444.472 888.945C689.953 888.945 888.945 689.953 888.945 444.472C888.945 198.992 689.953 0 444.472 0ZM444.472 26.6835C500.901 26.6835 555.591 37.7197 607.106 59.4898C631.861 69.9591 655.71 82.9228 678.047 98.0031C700.195 112.97 720.983 130.129 739.918 149.027C758.816 167.962 775.975 188.75 790.942 210.898C806.022 233.272 818.986 257.121 829.455 281.877C851.225 333.354 862.261 388.082 862.261 444.472C862.261 500.901 851.225 555.591 829.455 607.106C818.986 631.861 806.022 655.71 790.942 678.047C775.975 700.195 758.816 720.983 739.918 739.918C720.983 758.816 700.195 775.975 678.047 790.942C655.71 806.022 631.861 818.986 607.106 829.455C555.591 851.225 500.901 862.261 444.472 862.261C388.082 862.261 333.354 851.225 281.877 829.455C257.121 818.986 233.272 806.022 210.898 790.942C188.75 775.975 167.962 758.816 149.027 739.918C130.129 720.983 112.97 700.195 98.0031 678.047C82.9228 655.71 69.9591 631.861 59.4898 607.106C37.7197 555.591 26.6835 500.901 26.6835 444.472C26.6835 388.082 37.7197 333.354 59.4898 281.877C69.9591 257.121 82.9228 233.272 98.0031 210.898C112.97 188.75 130.129 167.962 149.027 149.027C167.962 130.129 188.75 112.97 210.898 98.0031C233.272 82.9228 257.121 69.9591 281.877 59.4898C333.354 37.7197 388.082 26.6835 444.472 26.6835Z" fill="#32373C"/>
<path fill-rule="evenodd" clip-rule="evenodd" d="M769.511 266.797C771.099 278.589 772.006 291.251 772.006 304.895C772.006 342.463 764.938 384.681 743.81 437.518L630.689 764.599C740.825 700.385 814.866 581.103 814.866 444.473C814.866 380.07 798.387 319.559 769.511 266.797ZM451.01 476.863L339.855 799.748C373.039 809.537 408.151 814.867 444.472 814.867C487.634 814.867 528.982 807.421 567.495 793.852C566.513 792.265 565.568 790.602 564.812 788.75L451.01 476.863ZM694.525 425.802C694.525 379.994 678.084 348.322 663.987 323.641C645.203 293.141 627.59 267.326 627.59 236.788C627.59 202.734 653.404 171.062 689.801 171.062C691.426 171.062 693.014 171.251 694.601 171.364C628.686 110.929 540.925 74.0791 444.472 74.0791C315.099 74.0791 201.259 140.485 135.004 241.059C143.697 241.323 151.936 241.512 158.853 241.512C197.593 241.512 257.574 236.788 257.574 236.788C277.53 235.616 279.911 264.945 259.955 267.326C259.955 267.326 239.886 269.67 217.549 270.841L352.44 672L433.511 428.939L375.798 270.841C355.842 269.67 336.944 267.326 336.944 267.326C316.988 266.117 319.332 235.616 339.288 236.788C339.288 236.788 400.44 241.512 436.837 241.512C475.577 241.512 535.558 236.788 535.558 236.788C555.514 235.616 557.858 264.945 537.94 267.326C537.94 267.326 517.832 269.67 495.533 270.841L629.366 668.939L667.577 547.881C684.547 494.967 694.525 457.474 694.525 425.802ZM74.0781 444.473C74.0781 591.081 159.306 717.77 282.859 777.789L106.166 293.745C85.6057 339.818 74.0781 390.766 74.0781 444.473Z" fill="#32373C"/>
</mask>
<g mask="url(#mask0_457_48)">
<rect width="889" height="889" fill="#D9D9D9"/>
</g>
</svg>
